<?xml version="1.0" encoding="UTF-8" standalone="no"?>
<!-- Created with Inkscape (http://www.inkscape.org/) -->

<svg
   width="63.999996"
   height="63.999996"
   viewBox="0 0 16.933332 16.933332"
   version="1.1"
   id="svg5"
   xmlns="http://www.w3.org/2000/svg"
   xmlns:svg="http://www.w3.org/2000/svg">
   <defs
      id="defs2" />
   <g
      id="layer1"
      style="display:none">
      <path
         id="rect234"
         style="display:none;fill:#000000;fill-opacity:1;fill-rule:evenodd;stroke-width:0;paint-order:stroke fill markers;stop-color:#000000"
         d="M 1.0583333,1.0583333 V 7.4083332 H 2.1166666 V 2.1166666 H 7.4083332 V 1.0583333 Z m 8.4666665,0 V 2.1166666 H 14.816666 V 7.4083332 H 15.875 V 1.0583333 Z M 1.0583333,9.5249998 V 15.875 H 7.4083332 V 14.816666 H 2.1166666 V 9.5249998 Z m 13.7583327,0 V 14.816666 H 9.5249998 V 15.875 H 15.875 V 9.5249998 Z" />
      <path
         id="path933"
         style="display:inline;fill:#000000;fill-opacity:1;fill-rule:evenodd;stroke-width:0;paint-order:stroke fill markers;stop-color:#000000"
         d="M 6.3499999,1.0583333 V 6.3499999 H 1.0583333 V 7.4083332 H 7.4083332 V 1.0583333 Z m 3.1749999,0 V 7.4083332 H 15.875 V 6.3499999 H 10.583333 V 1.0583333 Z M 1.0583333,9.5249998 V 10.583333 H 6.3499999 V 15.875 H 7.4083332 V 9.5249998 Z m 8.4666665,0 V 15.875 H 10.583333 V 10.583333 H 15.875 V 9.5249998 Z" />
   </g>
   <g
      id="layer2"
      style="display:none">
      <path
         id="rect1068"
         style="fill:#000000;fill-opacity:1;fill-rule:evenodd;stroke-width:0;paint-order:stroke fill markers;stop-color:#000000"
         d="M 1.0583333,1.0583333 V 15.875 H 15.875 V 1.0583333 Z M 8.4666665,3.1749999 A 5.2916665,5.2916665 0 0 1 13.758333,8.4666665 5.2916665,5.2916665 0 0 1 8.4666665,13.758333 5.2916665,5.2916665 0 0 1 3.1749999,8.4666665 5.2916665,5.2916665 0 0 1 8.4666665,3.1749999 Z m 0,2.1166667 A 3.175,3.175 0 0 0 5.2916666,8.4666665 3.175,3.175 0 0 0 8.4666665,11.641666 3.175,3.175 0 0 0 11.641666,8.4666665 3.175,3.175 0 0 0 8.4666665,5.2916666 Z" />
   </g>
   <g
      id="layer3">
      <path
         id="rect345"
         style="fill:#000000;fill-rule:evenodd;stroke-width:0;paint-order:stroke fill markers;stop-color:#000000"
         d="M 12.015804,2.8649412 11.26753,2.1166673 4.9175285,8.4666665 11.26753,14.816666 12.015803,14.068392 6.4140775,8.4666666 Z" />
   </g>
</svg>